<svg xmlns="http://www.w3.org/2000/svg" viewBox="0 0 412.25 412.25"><defs><style>.cls-1{fill:#fff;stroke:#fff;stroke-miterlimit:10;stroke-width:0.25px;}</style></defs><title>twitter-white</title><g id="レイヤー_2" data-name="レイヤー 2"><g id="Layer_1" data-name="Layer 1"><path class="cls-1" d="M412.12,65.54A65.07,65.07,0,0,0,346.71.12H66.54C30.14.12.12,29.14.12,65.54V345.71c0,36.4,30,66.41,66.42,66.41H346.71c36.4,0,65.41-30,65.41-66.41ZM326.23,209.25c-5.58,22.82-18.87,43.3-36.1,59.08-33.54,30.36-80,44.91-124.86,42-43.15-2.64-85.6-23.9-111.08-59.18,2.22,1.3,4.09,3.1,6.22,4.54,19.73,14.28,46,18.81,69.46,12.44a82.49,82.49,0,0,0,37.49-22c-6.61.44-13.94-.73-18.73-5.71a10.09,10.09,0,0,1-2.42-11.33c2.17-4.81,7-7.54,11.56-9.7-15,2.14-31.28-4.83-38.19-18.67,5.06-6,13.15-8,20.65-8.56-8.73-2.55-17.71-5.67-24.33-12.19A32.44,32.44,0,0,1,106.18,161c6.19-1.15,12.4-2.55,18.74-2.29-14.38-7.48-27.52-21.73-26.37-39,27.26,10,54.08,21.29,79.7,35,9,4.92,16.41,12,23.73,19.07,7.1-18.43,14.71-36.93,26.26-53.1,6.19-8.5,13.48-16.41,22.45-22-.35,2.79-1.78,5.22-3.1,7.64,6.69-5.05,14.44-9,22.86-10-1.17,5-5.94,7.67-10.1,10,6.28-1.85,12.4-4.59,19-5.05,1.76-.06,4.28,0,4.91,2.07.95,2.56-1.64,4.54-3.6,5.61-7.23,3.73-15.58,4.27-22.93,7.72,15.1-1.42,30.18,4.43,41.63,14.1,13.67,11.25,22.7,27.54,26,44.86,12.08,3.24,25.14.89,36.48-3.93-5.7,12.91-20.22,18.81-33.48,20,11,4.16,23.14,4.87,34.79,3.63C354,205.58,339.66,209.56,326.23,209.25Z"/></g></g></svg>